<?xml version="1.0" encoding="utf-8"?>
<!-- Generator: Adobe Illustrator 18.1.1, SVG Export Plug-In . SVG Version: 6.00 Build 0)  -->
<svg version="1.1" xmlns="http://www.w3.org/2000/svg" xmlns:xlink="http://www.w3.org/1999/xlink" x="0px" y="0px"
	 viewBox="0 0 1280 1040" enable-background="new 0 0 1280 1040" xml:space="preserve">
<g id="background">
	<rect fill="#231F20" stroke="#FFFFFF" stroke-miterlimit="10" width="1280" height="1040"/>
	<g id="Layer_2">
	</g>
</g>
<g id="rightStars">
	<circle id="rightStar54" fill="#FFFFFF" stroke="#FFFFFF" stroke-miterlimit="10" cx="1089.2" cy="260.6" r="8.7"/>
	<circle id="rightStar53" fill="#FFFFFF" stroke="#FFFFFF" stroke-miterlimit="10" cx="936" cy="465.6" r="8.7"/>
	<circle id="rightStar52" fill="#FFFFFF" stroke="#FFFFFF" stroke-miterlimit="10" cx="756.2" cy="458.5" r="8.7"/>
	<circle id="rightStar51" fill="#FFFFFF" stroke="#FFFFFF" stroke-miterlimit="10" cx="1133.7" cy="524.4" r="8.7"/>
	<circle id="rightStar50" fill="#FFFFFF" stroke="#FFFFFF" stroke-miterlimit="10" cx="1017.2" cy="418.5" r="8.7"/>
	<circle id="rightStar49" fill="#FFFFFF" stroke="#FFFFFF" stroke-miterlimit="10" cx="921.5" cy="344.9" r="8.7"/>
	<circle id="rightStar48" fill="#FFFFFF" stroke="#FFFFFF" stroke-miterlimit="10" cx="1029.7" cy="340.7" r="8.7"/>
	<circle id="rightStar47" fill="#FFFFFF" stroke="#FFFFFF" stroke-miterlimit="10" cx="1106.5" cy="75.5" r="8.7"/>
	<circle id="rightStar46" fill="#FFFFFF" stroke="#FFFFFF" stroke-miterlimit="10" cx="1029.5" cy="193.2" r="8.7"/>
	<circle id="rightStar45" fill="#FFFFFF" stroke="#FFFFFF" stroke-miterlimit="10" cx="967.4" cy="227.4" r="8.7"/>
	<circle id="rightStar44" fill="#FFFFFF" stroke="#FFFFFF" stroke-miterlimit="10" cx="860.5" cy="264.7" r="8.7"/>
	<circle id="rightStar43" fill="#FFFFFF" stroke="#FFFFFF" stroke-miterlimit="10" cx="804.6" cy="334.6" r="8.7"/>
	<circle id="rightStar42" fill="#FFFFFF" stroke="#FFFFFF" stroke-miterlimit="10" cx="960.2" cy="167.7" r="8.7"/>
	<circle id="rightStar41" fill="#FFFFFF" stroke="#FFFFFF" stroke-miterlimit="10" cx="947.3" cy="132.3" r="8.7"/>
	<circle id="rightStar40" fill="#FFFFFF" stroke="#FFFFFF" stroke-miterlimit="10" cx="884.9" cy="185.5" r="8.7"/>
	<circle id="rightStar39" fill="#FFFFFF" stroke="#FFFFFF" stroke-miterlimit="10" cx="832.2" cy="101.6" r="8.7"/>
	<circle id="rightStar38" fill="#FFFFFF" stroke="#FFFFFF" stroke-miterlimit="10" cx="732.1" cy="228.8" r="8.7"/>
	<circle id="rightStar37" fill="#FFFFFF" stroke="#FFFFFF" stroke-miterlimit="10" cx="834.2" cy="581.8" r="8.7"/>
	<circle id="rightStar36" fill="#FFFFFF" stroke="#FFFFFF" stroke-miterlimit="10" cx="842.7" cy="422" r="8.7"/>
	<circle id="rightStar35" fill="#FFFFFF" stroke="#FFFFFF" stroke-miterlimit="10" cx="714.8" cy="75.5" r="8.7"/>
	<circle id="rightStar34" fill="#FFFFFF" stroke="#FFFFFF" stroke-miterlimit="10" cx="799.6" cy="159.1" r="8.7"/>
	<circle id="rightStar33" fill="#FFFFFF" stroke="#FFFFFF" stroke-miterlimit="10" cx="1133.7" cy="397.2" r="8.7"/>
	<line id="rightStar32" fill="none" stroke="#FFFFFF" stroke-miterlimit="10" x1="1106.5" y1="75.5" x2="1089.2" y2="260.6"/>
	<circle id="rightStar31" fill="#FFFFFF" stroke="#FFFFFF" stroke-miterlimit="10" cx="639.1" cy="2.5" r="8.7"/>
	<circle id="rightStar30" fill="#FFFFFF" stroke="#FFFFFF" stroke-miterlimit="10" cx="813.2" cy="0.7" r="8.7"/>
	<circle id="rightStar29" fill="#FFFFFF" stroke="#FFFFFF" stroke-miterlimit="10" cx="1023.5" cy="0.7" r="8.7"/>
	<circle id="rightStar28" fill="#FFFFFF" stroke="#FFFFFF" stroke-miterlimit="10" cx="905.1" cy="23.6" r="8.7"/>
	<circle id="rightStar27" fill="#FFFFFF" stroke="#FFFFFF" stroke-miterlimit="10" cx="639.1" cy="176.5" r="8.7"/>
	<circle id="rightStar26" fill="#FFFFFF" stroke="#FFFFFF" stroke-miterlimit="10" cx="684.6" cy="290.2" r="8.7"/>
	<circle id="rightStar25" fill="#FFFFFF" stroke="#FFFFFF" stroke-miterlimit="10" cx="684.6" cy="290.2" r="8.7"/>
	<circle id="rightStar24" fill="#FFFFFF" stroke="#FFFFFF" stroke-miterlimit="10" cx="639.1" cy="486.3" r="8.7"/>
	<circle id="rightStar23" fill="#FFFFFF" stroke="#FFFFFF" stroke-miterlimit="10" cx="665" cy="340.7" r="8.7"/>
	<circle id="rightStar22" fill="#FFFFFF" stroke="#FFFFFF" stroke-miterlimit="10" cx="1270.9" cy="626.3" r="8.7"/>
	<circle id="rightStar21" fill="#FFFFFF" stroke="#FFFFFF" stroke-miterlimit="10" cx="1125" cy="768.3" r="8.7"/>
	<circle id="rightStar20" fill="#FFFFFF" stroke="#FFFFFF" stroke-miterlimit="10" cx="1034.8" cy="670.7" r="8.7"/>
	<circle id="rightStar19" fill="#FFFFFF" stroke="#FFFFFF" stroke-miterlimit="10" cx="896.5" cy="759.7" r="8.7"/>
	<circle id="rightStar18" fill="#FFFFFF" stroke="#FFFFFF" stroke-miterlimit="10" cx="729.1" cy="653.5" r="8.7"/>
	<circle id="rightStar17" fill="#FFFFFF" stroke="#FFFFFF" stroke-miterlimit="10" cx="1266.9" cy="2.5" r="8.7"/>
	<circle id="rightStar16" fill="#FFFFFF" stroke="#FFFFFF" stroke-miterlimit="10" cx="834.2" cy="891" r="8.7"/>
	<circle id="rightStar15" fill="#FFFFFF" stroke="#FFFFFF" stroke-miterlimit="10" cx="1017.2" cy="833.9" r="8.7"/>
	<circle id="rightStar14" fill="#FFFFFF" stroke="#FFFFFF" stroke-miterlimit="10" cx="1269.9" cy="833.9" r="8.7"/>
	<circle id="rightStar13" fill="#FFFFFF" stroke="#FFFFFF" stroke-miterlimit="10" cx="1270.3" cy="93" r="8.7"/>
	<circle id="rightStar12" fill="#FFFFFF" stroke="#FFFFFF" stroke-miterlimit="10" cx="1165.1" cy="206.5" r="8.7"/>
	<circle id="rightStar11" fill="#FFFFFF" stroke="#FFFFFF" stroke-miterlimit="10" cx="1271.3" cy="290.2" r="8.7"/>
	<circle id="rightStar10" fill="#FFFFFF" stroke="#FFFFFF" stroke-miterlimit="10" cx="1269.9" cy="474.3" r="8.7"/>
	<circle id="rightStar9" fill="#FFFFFF" stroke="#FFFFFF" stroke-miterlimit="10" cx="638.8" cy="970.2" r="8.7"/>
	<circle id="rightStar8" fill="#FFFFFF" stroke="#FFFFFF" stroke-miterlimit="10" cx="638.8" cy="796.2" r="8.7"/>
	<circle id="rightStar7" fill="#FFFFFF" stroke="#FFFFFF" stroke-miterlimit="10" cx="638.8" cy="486.3" r="8.7"/>
	<circle id="rightStar6" fill="#FFFFFF" stroke="#FFFFFF" stroke-miterlimit="10" cx="693.3" cy="1037.7" r="8.7"/>
	<circle id="rightStar5" fill="#FFFFFF" stroke="#FFFFFF" stroke-miterlimit="10" cx="876.3" cy="1037.7" r="8.7"/>
	<circle id="rightStar4" fill="#FFFFFF" stroke="#FFFFFF" stroke-miterlimit="10" cx="756.2" cy="978.8" r="8.7"/>
	<circle id="rightStar3" fill="#FFFFFF" stroke="#FFFFFF" stroke-miterlimit="10" cx="1125" cy="1037.7" r="8.7"/>
	<circle id="rightStar2" fill="#FFFFFF" stroke="#FFFFFF" stroke-miterlimit="10" cx="1269.9" cy="978.8" r="8.7"/>
	<circle id="rightStar1" fill="#FFFFFF" stroke="#FFFFFF" stroke-miterlimit="10" cx="1017.2" cy="978.8" r="8.7"/>
</g>
<g id="rightLines">
	<line id="rightLine115_4_" fill="none" stroke="#FFFFFF" stroke-miterlimit="10" x1="842.7" y1="422" x2="936" y2="465.6"/>
	<line id="rightLine114_4_" fill="none" stroke="#FFFFFF" stroke-miterlimit="10" x1="936" y1="465.6" x2="1017.2" y2="418.5"/>
	<line id="rightLine113_4_" fill="none" stroke="#FFFFFF" stroke-miterlimit="10" x1="1017.2" y1="418.5" x2="921.5" y2="344.9"/>
	<line id="rightLine112_4_" fill="none" stroke="#FFFFFF" stroke-miterlimit="10" x1="921.5" y1="344.9" x2="1029.7" y2="340.7"/>
	<line id="rightLine111_4_" fill="none" stroke="#FFFFFF" stroke-miterlimit="10" x1="1025.9" y1="340.8" x2="967" y2="224"/>
	<line id="rightLine110_4_" fill="none" stroke="#FFFFFF" stroke-miterlimit="10" x1="1030.4" y1="191.3" x2="1029.5" y2="193.2"/>
	<line id="rightLine109_4_" fill="none" stroke="#FFFFFF" stroke-miterlimit="10" x1="1029.5" y1="193.2" x2="960.2" y2="167.7"/>
	<line id="rightLine108_4_" fill="none" stroke="#FFFFFF" stroke-miterlimit="10" x1="960.2" y1="167.7" x2="947.3" y2="132.3"/>
	<line id="rightLine107_4_" fill="none" stroke="#FFFFFF" stroke-miterlimit="10" x1="944" y1="132.7" x2="884.9" y2="185.5"/>
	<line id="rightLine106_4_" fill="none" stroke="#FFFFFF" stroke-miterlimit="10" x1="884.9" y1="185.5" x2="860.5" y2="264.7"/>
	<line id="rightLine105_4_" fill="none" stroke="#FFFFFF" stroke-miterlimit="10" x1="860.5" y1="264.7" x2="804.6" y2="334.6"/>
	<line id="rightLine104_4_" fill="none" stroke="#FFFFFF" stroke-miterlimit="10" x1="804.6" y1="334.6" x2="842.7" y2="422"/>
	<line id="rightLine103_4_" fill="none" stroke="#FFFFFF" stroke-miterlimit="10" x1="804.6" y1="334.6" x2="732.1" y2="228.8"/>
	<line id="rightLine102_4_" fill="none" stroke="#FFFFFF" stroke-miterlimit="10" x1="756.4" y1="459.7" x2="842.7" y2="422"/>
	<line id="rightLine101_4_" fill="none" stroke="#FFFFFF" stroke-miterlimit="10" x1="804.6" y1="334.6" x2="756.4" y2="459.7"/>
	<line id="rightLine100_4_" fill="none" stroke="#FFFFFF" stroke-miterlimit="10" x1="842.7" y1="422" x2="921.5" y2="344.9"/>
	<line id="rightLine99_4_" fill="none" stroke="#FFFFFF" stroke-miterlimit="10" x1="921.5" y1="344.9" x2="860.5" y2="264.7"/>
	<line id="rightLine98_4_" fill="none" stroke="#FFFFFF" stroke-miterlimit="10" x1="967.4" y1="227.4" x2="922" y2="349.2"/>
	<line id="rightLine97_4_" fill="none" stroke="#FFFFFF" stroke-miterlimit="10" x1="967.4" y1="227.4" x2="960.2" y2="167.7"/>
	<line id="rightLine96_4_" fill="none" stroke="#FFFFFF" stroke-miterlimit="10" x1="756.2" y1="458.5" x2="834.2" y2="581.8"/>
	<line id="rightLine95_4_" fill="none" stroke="#FFFFFF" stroke-miterlimit="10" x1="834.2" y1="581.8" x2="936" y2="465.6"/>
	<line id="rightLine94_4_" fill="none" stroke="#FFFFFF" stroke-miterlimit="10" x1="936" y1="465.6" x2="1133.7" y2="524.4"/>
	<line id="rightLine93_4_" fill="none" stroke="#FFFFFF" stroke-miterlimit="10" x1="1133.7" y1="524.4" x2="1017.2" y2="418.5"/>
	<line id="rightLine92_4_" fill="none" stroke="#FFFFFF" stroke-miterlimit="10" x1="946.8" y1="128.3" x2="832.2" y2="101.6"/>
	<line id="rightLine91_4_" fill="none" stroke="#FFFFFF" stroke-miterlimit="10" x1="832.2" y1="101.6" x2="884.9" y2="185.5"/>
	<line id="rightLine90_4_" fill="none" stroke="#FFFFFF" stroke-miterlimit="10" x1="884.9" y1="185.5" x2="732.1" y2="228.8"/>
	<line id="rightLine89_4_" fill="none" stroke="#FFFFFF" stroke-miterlimit="10" x1="732.1" y1="228.8" x2="756.2" y2="458.5"/>
	<line id="rightLine88_4_" fill="none" stroke="#FFFFFF" stroke-miterlimit="10" x1="1017.2" y1="418.5" x2="1029.7" y2="340.7"/>
	<line id="rightLine87_4_" fill="none" stroke="#FFFFFF" stroke-miterlimit="10" x1="1106.5" y1="75.5" x2="1029.5" y2="193.2"/>
	<line id="rightLine86_4_" fill="none" stroke="#FFFFFF" stroke-miterlimit="10" x1="1106.5" y1="75.5" x2="963.8" y2="167.7"/>
	<line id="rightLine85_4_" fill="none" stroke="#FFFFFF" stroke-miterlimit="10" x1="1106.5" y1="75.5" x2="947.3" y2="132.3"/>
	<circle id="rightLine84_4_" fill="#FFFFFF" stroke="#FFFFFF" stroke-miterlimit="10" cx="958.7" cy="599.1" r="8.7"/>
	<line id="rightLine83_4_" fill="none" stroke="#FFFFFF" stroke-miterlimit="10" x1="1029.5" y1="342.2" x2="1089.2" y2="260.6"/>
	<line id="rightLine82_4_" fill="none" stroke="#FFFFFF" stroke-miterlimit="10" x1="1089.2" y1="260.6" x2="967.4" y2="227.4"/>
	<line id="rightLine81_4_" fill="none" stroke="#FFFFFF" stroke-miterlimit="10" x1="1089.2" y1="260.6" x2="1029.5" y2="193.2"/>
	<line id="rightLine80_4_" fill="none" stroke="#FFFFFF" stroke-miterlimit="10" x1="860.5" y1="264.7" x2="967.4" y2="227.4"/>
	<line id="rightLine79_4_" fill="none" stroke="#FFFFFF" stroke-miterlimit="10" x1="884.9" y1="185.5" x2="960.2" y2="167.7"/>
	<line id="rightLine78_4_" fill="none" stroke="#FFFFFF" stroke-miterlimit="10" x1="884.9" y1="185.5" x2="967.4" y2="227.4"/>
	<line id="rightLine77_4_" fill="none" stroke="#FFFFFF" stroke-miterlimit="10" x1="1133.7" y1="397.2" x2="1133.7" y2="524.4"/>
	<line id="rightLine76_4_" fill="none" stroke="#FFFFFF" stroke-miterlimit="10" x1="1133.7" y1="397.2" x2="1029.5" y2="342.2"/>
	<line id="rightLine75_4_" fill="none" stroke="#FFFFFF" stroke-miterlimit="10" x1="1133.7" y1="397.2" x2="1089.2" y2="260.6"/>
	<line id="rightLine74_4_" fill="none" stroke="#FFFFFF" stroke-miterlimit="10" x1="936" y1="465.6" x2="958.7" y2="599.1"/>
	<line id="rightLine73_4_" fill="none" stroke="#FFFFFF" stroke-miterlimit="10" x1="958.7" y1="599.1" x2="1133.7" y2="524.4"/>
	<line id="rightLine72_4_" fill="none" stroke="#FFFFFF" stroke-miterlimit="10" x1="958.7" y1="599.1" x2="834.2" y2="581.8"/>
	<line id="rightLine71_4_" fill="none" stroke="#FFFFFF" stroke-miterlimit="10" x1="732.1" y1="228.8" x2="860.5" y2="264.7"/>
	<line id="rightLine70_4_" fill="none" stroke="#FFFFFF" stroke-miterlimit="10" x1="799.6" y1="159.1" x2="732.1" y2="228.8"/>
	<line id="rightLine69_4_" fill="none" stroke="#FFFFFF" stroke-miterlimit="10" x1="832.2" y1="101.6" x2="799.6" y2="159.1"/>
	<line id="rightLine68_4_" fill="none" stroke="#FFFFFF" stroke-miterlimit="10" x1="799.6" y1="159.1" x2="884.3" y2="184.5"/>
	<line id="rightLine67_4_" fill="none" stroke="#FFFFFF" stroke-miterlimit="10" x1="799.6" y1="159.1" x2="714.8" y2="75.5"/>
	<line id="rightLine66_4_" fill="none" stroke="#FFFFFF" stroke-miterlimit="10" x1="714.8" y1="75.5" x2="732.1" y2="228.8"/>
	<line id="rightLine65_4_" fill="none" stroke="#FFFFFF" stroke-miterlimit="10" x1="714.8" y1="75.5" x2="832.2" y2="101.6"/>
	<line id="rightLine64_4_" fill="none" stroke="#FFFFFF" stroke-miterlimit="10" x1="905.1" y1="23.6" x2="947.3" y2="132.3"/>
	<line id="rightLine63_4_" fill="none" stroke="#FFFFFF" stroke-miterlimit="10" x1="813.2" y1="0.7" x2="832.2" y2="101.6"/>
	<line id="rightLine62_4_" fill="none" stroke="#FFFFFF" stroke-miterlimit="10" x1="905.1" y1="23.6" x2="813.2" y2="0.7"/>
	<line id="rightLine61_4_" fill="none" stroke="#FFFFFF" stroke-miterlimit="10" x1="905.1" y1="23.6" x2="1023.5" y2="0.7"/>
	<line id="rightLine60_4_" fill="none" stroke="#FFFFFF" stroke-miterlimit="10" x1="1023.5" y1="0.7" x2="1106.5" y2="75.5"/>
	<line id="rightLine59_4_" fill="none" stroke="#FFFFFF" stroke-miterlimit="10" x1="714.8" y1="75.5" x2="639.1" y2="176.5"/>
	<line id="rightLine58_4_" fill="none" stroke="#FFFFFF" stroke-miterlimit="10" x1="639.1" y1="176.5" x2="684.6" y2="290.2"/>
	<line id="rightLine57_4_" fill="none" stroke="#FFFFFF" stroke-miterlimit="10" x1="684.6" y1="290.2" x2="732.1" y2="228.8"/>
	<line id="rightLine56_4_" fill="none" stroke="#FFFFFF" stroke-miterlimit="10" x1="639.1" y1="176.5" x2="665" y2="340.7"/>
	<line id="rightLine55_4_" fill="none" stroke="#FFFFFF" stroke-miterlimit="10" x1="665" y1="340.7" x2="639.1" y2="486.3"/>
	<line id="rightLine54_4_" fill="none" stroke="#FFFFFF" stroke-miterlimit="10" x1="639.1" y1="486.3" x2="756.2" y2="458.5"/>
	<line id="rightLine53_4_" fill="none" stroke="#FFFFFF" stroke-miterlimit="10" x1="665" y1="340.7" x2="756.2" y2="458.5"/>
	<line id="rightLine52_4_" fill="none" stroke="#FFFFFF" stroke-miterlimit="10" x1="684.6" y1="290.2" x2="756.2" y2="458.5"/>
	<line id="rightLine51_4_" fill="none" stroke="#FFFFFF" stroke-miterlimit="10" x1="684.6" y1="290.2" x2="665" y2="340.7"/>
	<line id="rightLine50_4_" fill="none" stroke="#FFFFFF" stroke-miterlimit="10" x1="639.1" y1="2.5" x2="813.2" y2="0.7"/>
	<line id="rightLine49_4_" fill="none" stroke="#FFFFFF" stroke-miterlimit="10" x1="639.1" y1="2.5" x2="714.8" y2="75.5"/>
	<line id="rightLine48_4_" fill="none" stroke="#FFFFFF" stroke-miterlimit="10" x1="813.2" y1="0.7" x2="714.8" y2="75.5"/>
	<line id="rightLine45_4_" fill="none" stroke="#FFFFFF" stroke-miterlimit="10" x1="639.1" y1="486.3" x2="729.1" y2="653.5"/>
	<line id="rightLine44_4_" fill="none" stroke="#FFFFFF" stroke-miterlimit="10" x1="729.1" y1="653.5" x2="834.2" y2="581.8"/>
	<line id="rightLine43_4_" fill="none" stroke="#FFFFFF" stroke-miterlimit="10" x1="729.1" y1="653.5" x2="896.5" y2="759.7"/>
	<line id="rightLine42_4_" fill="none" stroke="#FFFFFF" stroke-miterlimit="10" x1="896.5" y1="759.7" x2="958.7" y2="599.1"/>
	<line id="rightLine41_4_" fill="none" stroke="#FFFFFF" stroke-miterlimit="10" x1="834.2" y1="581.8" x2="896.5" y2="759.7"/>
	<line id="rightLine40_4_" fill="none" stroke="#FFFFFF" stroke-miterlimit="10" x1="955.9" y1="599.1" x2="1034.8" y2="670.7"/>
	<line id="rightLine39_4_" fill="none" stroke="#FFFFFF" stroke-miterlimit="10" x1="1034.8" y1="670.7" x2="896.5" y2="759.7"/>
	<line id="rightLine38_4_" fill="none" stroke="#FFFFFF" stroke-miterlimit="10" x1="1034.8" y1="670.7" x2="1133.7" y2="524.4"/>
	<line id="rightLine37_4_" fill="none" stroke="#FFFFFF" stroke-miterlimit="10" x1="1133.7" y1="524.4" x2="1125" y2="768.3"/>
	<line id="rightLine36_4_" fill="none" stroke="#FFFFFF" stroke-miterlimit="10" x1="1133.7" y1="524.4" x2="1266.9" y2="626.3"/>
	<line id="rightLine35_4_" fill="none" stroke="#FFFFFF" stroke-miterlimit="10" x1="1266.9" y1="626.3" x2="1125" y2="768.3"/>
	<line id="rightLine34_4_" fill="none" stroke="#FFFFFF" stroke-miterlimit="10" x1="1125" y1="768.3" x2="896.5" y2="759.7"/>
	<line id="rightLine33_4_" fill="none" stroke="#FFFFFF" stroke-miterlimit="10" x1="1034.8" y1="670.7" x2="1125" y2="768.3"/>
	<line id="rightLine32_4_" fill="none" stroke="#FFFFFF" stroke-miterlimit="10" x1="1266.9" y1="474.3" x2="1133.7" y2="397.2"/>
	<line id="rightLine31_4_" fill="none" stroke="#FFFFFF" stroke-miterlimit="10" x1="1165.1" y1="206.5" x2="1089.2" y2="260.6"/>
	<line id="rightLine30_4_" fill="none" stroke="#FFFFFF" stroke-miterlimit="10" x1="1106.5" y1="75.5" x2="1165.1" y2="206.5"/>
	<line id="rightLine29_4_" fill="none" stroke="#FFFFFF" stroke-miterlimit="10" x1="1133.7" y1="397.2" x2="1271.3" y2="290.2"/>
	<line id="rightLine28_4_" fill="none" stroke="#FFFFFF" stroke-miterlimit="10" x1="1271.3" y1="290.2" x2="1165.1" y2="206.5"/>
	<line id="rightLine27_4_" fill="none" stroke="#FFFFFF" stroke-miterlimit="10" x1="1165.1" y1="206.5" x2="1270.3" y2="93"/>
	<line id="rightLine26_4_" fill="none" stroke="#FFFFFF" stroke-miterlimit="10" x1="1270.3" y1="93" x2="1106.5" y2="75.5"/>
	<line id="rightLine25_4_" fill="none" stroke="#FFFFFF" stroke-miterlimit="10" x1="1089.2" y1="260.6" x2="1271.3" y2="290.2"/>
	<line id="rightLine24_4_" fill="none" stroke="#FFFFFF" stroke-miterlimit="10" x1="1125" y1="768.3" x2="1269.9" y2="833.9"/>
	<line id="rightLine23_4_" fill="none" stroke="#FFFFFF" stroke-miterlimit="10" x1="1269.9" y1="833.9" x2="1017.2" y2="833.9"/>
	<line id="rightLine22_4_" fill="none" stroke="#FFFFFF" stroke-miterlimit="10" x1="1017.2" y1="833.9" x2="896.5" y2="764"/>
	<line id="rightLine21_4_" fill="none" stroke="#FFFFFF" stroke-miterlimit="10" x1="896.5" y1="764" x2="834.2" y2="891"/>
	<line id="rightLine20_4_" fill="none" stroke="#FFFFFF" stroke-miterlimit="10" x1="834.2" y1="891" x2="1017.2" y2="833.9"/>
	<line id="rightLine19_4_" fill="none" stroke="#FFFFFF" stroke-miterlimit="10" x1="729.1" y1="653.5" x2="834.2" y2="891"/>
	<line id="rightLine17_4_" fill="none" stroke="#FFFFFF" stroke-miterlimit="10" x1="1106.5" y1="75.5" x2="1266.9" y2="2.5"/>
	<line id="rightLine16_4_" fill="none" stroke="#FFFFFF" stroke-miterlimit="10" x1="1017.2" y1="833.9" x2="1017.2" y2="978.8"/>
	<line id="rightLine15_4_" fill="none" stroke="#FFFFFF" stroke-miterlimit="10" x1="1017.2" y1="978.8" x2="1125" y2="1037.7"/>
	<line id="rightLine14_4_" fill="none" stroke="#FFFFFF" stroke-miterlimit="10" x1="1125" y1="1037.7" x2="1269.9" y2="978.8"/>
	<line id="rightLine13_4_" fill="none" stroke="#FFFFFF" stroke-miterlimit="10" x1="1269.9" y1="978.8" x2="1017.2" y2="978.8"/>
	<line id="rightLine12_4_" fill="none" stroke="#FFFFFF" stroke-miterlimit="10" x1="1269.9" y1="833.9" x2="1269.9" y2="978.8"/>
	<line id="rightLine11_4_" fill="none" stroke="#FFFFFF" stroke-miterlimit="10" x1="834.2" y1="891" x2="1017.2" y2="978.8"/>
	<line id="rightLine10_4_" fill="none" stroke="#FFFFFF" stroke-miterlimit="10" x1="756.2" y1="978.8" x2="834.2" y2="891"/>
	<line id="rightLine9_4_" fill="none" stroke="#FFFFFF" stroke-miterlimit="10" x1="834.2" y1="891" x2="638.8" y2="796.2"/>
	<line id="rightLine8_4_" fill="none" stroke="#FFFFFF" stroke-miterlimit="10" x1="638.8" y1="796.2" x2="729.1" y2="653.5"/>
	<line id="rightLine7_4_" fill="none" stroke="#FFFFFF" stroke-miterlimit="10" x1="756.2" y1="978.8" x2="638.8" y2="970.2"/>
	<line id="rightLine6_4_" fill="none" stroke="#FFFFFF" stroke-miterlimit="10" x1="756.2" y1="978.8" x2="1017.2" y2="978.8"/>
	<line id="rightLine5_4_" fill="none" stroke="#FFFFFF" stroke-miterlimit="10" x1="756.2" y1="978.8" x2="876.3" y2="1037.7"/>
	<line id="rightLine4_4_" fill="none" stroke="#FFFFFF" stroke-miterlimit="10" x1="876.3" y1="1037.7" x2="1125" y2="1037.7"/>
	<line id="rightLine3_4_" fill="none" stroke="#FFFFFF" stroke-miterlimit="10" x1="876.3" y1="1037.7" x2="693.3" y2="1037.7"/>
	<line id="rightLine2_4_" fill="none" stroke="#FFFFFF" stroke-miterlimit="10" x1="693.3" y1="1037.7" x2="638.8" y2="970.2"/>
	<line id="rightLine1_4_" fill="none" stroke="#FFFFFF" stroke-miterlimit="10" x1="756.2" y1="978.8" x2="693.3" y2="1037.7"/>
	<line fill="none" stroke="#FFFFFF" stroke-miterlimit="10" x1="813.2" y1="0.7" x2="1023.5" y2="0.7"/>
	<line fill="none" stroke="#FFFFFF" stroke-miterlimit="10" x1="1023.5" y1="0.7" x2="1266.9" y2="2.5"/>
	<line fill="none" stroke="#FFFFFF" stroke-miterlimit="10" x1="1266.9" y1="2.5" x2="1266.9" y2="96.6"/>
	<line fill="none" stroke="#FFFFFF" stroke-miterlimit="10" x1="1271.3" y1="93" x2="1271.3" y2="288.3"/>
	<line fill="none" stroke="#FFFFFF" stroke-miterlimit="10" x1="1271.3" y1="288.3" x2="1271.3" y2="471.5"/>
	<line fill="none" stroke="#FFFFFF" stroke-miterlimit="10" x1="1269.9" y1="474.3" x2="1269.9" y2="630.3"/>
	<line fill="none" stroke="#FFFFFF" stroke-miterlimit="10" x1="1269.9" y1="626.3" x2="1269.9" y2="833.9"/>
	<line fill="none" stroke="#FFFFFF" stroke-miterlimit="10" x1="876.3" y1="1037.7" x2="1125" y2="1037.7"/>
	<line fill="none" stroke="#FFFFFF" stroke-miterlimit="10" x1="693.3" y1="1037.7" x2="584.8" y2="1037.7"/>
</g>
<g id="leftStars">
	<circle id="rightStar54_1_" fill="#FFFFFF" stroke="#FFFFFF" stroke-miterlimit="10" cx="188.9" cy="260.6" r="8.7"/>
	<circle id="rightStar53_1_" fill="#FFFFFF" stroke="#FFFFFF" stroke-miterlimit="10" cx="342.2" cy="465.6" r="8.7"/>
	<circle id="rightStar52_1_" fill="#FFFFFF" stroke="#FFFFFF" stroke-miterlimit="10" cx="521.9" cy="458.5" r="8.7"/>
	<circle id="rightStar51_1_" fill="#FFFFFF" stroke="#FFFFFF" stroke-miterlimit="10" cx="144.4" cy="524.4" r="8.7"/>
	<circle id="rightStar50_1_" fill="#FFFFFF" stroke="#FFFFFF" stroke-miterlimit="10" cx="260.9" cy="418.5" r="8.7"/>
	<circle id="rightStar49_1_" fill="#FFFFFF" stroke="#FFFFFF" stroke-miterlimit="10" cx="356.6" cy="344.9" r="8.7"/>
	<circle id="rightStar48_1_" fill="#FFFFFF" stroke="#FFFFFF" stroke-miterlimit="10" cx="248.4" cy="340.7" r="8.7"/>
	<circle id="rightStar47_1_" fill="#FFFFFF" stroke="#FFFFFF" stroke-miterlimit="10" cx="171.6" cy="75.5" r="8.7"/>
	<circle id="rightStar46_1_" fill="#FFFFFF" stroke="#FFFFFF" stroke-miterlimit="10" cx="248.7" cy="193.2" r="8.7"/>
	<circle id="rightStar45_1_" fill="#FFFFFF" stroke="#FFFFFF" stroke-miterlimit="10" cx="310.7" cy="227.4" r="8.7"/>
	<circle id="rightStar44_1_" fill="#FFFFFF" stroke="#FFFFFF" stroke-miterlimit="10" cx="417.7" cy="264.7" r="8.7"/>
	<circle id="rightStar43_1_" fill="#FFFFFF" stroke="#FFFFFF" stroke-miterlimit="10" cx="473.5" cy="334.6" r="8.7"/>
	<circle id="rightStar42_1_" fill="#FFFFFF" stroke="#FFFFFF" stroke-miterlimit="10" cx="317.9" cy="167.7" r="8.7"/>
	<circle id="rightStar41_1_" fill="#FFFFFF" stroke="#FFFFFF" stroke-miterlimit="10" cx="330.9" cy="132.3" r="8.7"/>
	<circle id="rightStar40_1_" fill="#FFFFFF" stroke="#FFFFFF" stroke-miterlimit="10" cx="393.2" cy="185.5" r="8.7"/>
	<circle id="rightStar39_1_" fill="#FFFFFF" stroke="#FFFFFF" stroke-miterlimit="10" cx="445.9" cy="101.6" r="8.7"/>
	<circle id="rightStar38_1_" fill="#FFFFFF" stroke="#FFFFFF" stroke-miterlimit="10" cx="546" cy="228.8" r="8.7"/>
	<circle id="rightStar37_1_" fill="#FFFFFF" stroke="#FFFFFF" stroke-miterlimit="10" cx="443.9" cy="581.8" r="8.7"/>
	<circle id="rightStar36_1_" fill="#FFFFFF" stroke="#FFFFFF" stroke-miterlimit="10" cx="435.4" cy="422" r="8.7"/>
	<circle id="rightStar35_1_" fill="#FFFFFF" stroke="#FFFFFF" stroke-miterlimit="10" cx="563.3" cy="75.5" r="8.7"/>
	<circle id="rightStar34_1_" fill="#FFFFFF" stroke="#FFFFFF" stroke-miterlimit="10" cx="478.6" cy="159.1" r="8.7"/>
	<circle id="rightStar33_1_" fill="#FFFFFF" stroke="#FFFFFF" stroke-miterlimit="10" cx="144.4" cy="397.2" r="8.7"/>
	<line id="rightStar32_1_" fill="none" stroke="#FFFFFF" stroke-miterlimit="10" x1="171.6" y1="75.5" x2="188.9" y2="260.6"/>
	<circle id="rightStar31_1_" fill="#FFFFFF" stroke="#FFFFFF" stroke-miterlimit="10" cx="639" cy="2.5" r="8.7"/>
	<circle id="rightStar30_1_" fill="#FFFFFF" stroke="#FFFFFF" stroke-miterlimit="10" cx="464.9" cy="0.7" r="8.7"/>
	<circle id="rightStar29_1_" fill="#FFFFFF" stroke="#FFFFFF" stroke-miterlimit="10" cx="254.7" cy="0.7" r="8.7"/>
	<circle id="rightStar28_1_" fill="#FFFFFF" stroke="#FFFFFF" stroke-miterlimit="10" cx="373" cy="23.6" r="8.7"/>
	<circle id="rightStar27_1_" fill="#FFFFFF" stroke="#FFFFFF" stroke-miterlimit="10" cx="639" cy="176.5" r="8.7"/>
	<circle id="rightStar26_1_" fill="#FFFFFF" stroke="#FFFFFF" stroke-miterlimit="10" cx="593.5" cy="290.2" r="8.7"/>
	<circle id="rightStar25_1_" fill="#FFFFFF" stroke="#FFFFFF" stroke-miterlimit="10" cx="593.5" cy="290.2" r="8.7"/>
	<circle id="rightStar24_1_" fill="#FFFFFF" stroke="#FFFFFF" stroke-miterlimit="10" cx="639" cy="486.3" r="8.7"/>
	<circle id="rightStar23_1_" fill="#FFFFFF" stroke="#FFFFFF" stroke-miterlimit="10" cx="613.1" cy="340.7" r="8.7"/>
	<circle id="rightStar22_1_" fill="#FFFFFF" stroke="#FFFFFF" stroke-miterlimit="10" cx="7.2" cy="626.3" r="8.7"/>
	<circle id="rightStar21_1_" fill="#FFFFFF" stroke="#FFFFFF" stroke-miterlimit="10" cx="153.1" cy="768.3" r="8.7"/>
	<circle id="rightStar20_1_" fill="#FFFFFF" stroke="#FFFFFF" stroke-miterlimit="10" cx="243.3" cy="670.7" r="8.7"/>
	<circle id="rightStar19_1_" fill="#FFFFFF" stroke="#FFFFFF" stroke-miterlimit="10" cx="381.7" cy="759.7" r="8.7"/>
	<circle id="rightStar18_1_" fill="#FFFFFF" stroke="#FFFFFF" stroke-miterlimit="10" cx="549" cy="653.5" r="8.7"/>
	<circle id="rightStar17_1_" fill="#FFFFFF" stroke="#FFFFFF" stroke-miterlimit="10" cx="11.2" cy="2.5" r="8.7"/>
	<circle id="rightStar16_1_" fill="#FFFFFF" stroke="#FFFFFF" stroke-miterlimit="10" cx="443.9" cy="891" r="8.7"/>
	<circle id="rightStar15_1_" fill="#FFFFFF" stroke="#FFFFFF" stroke-miterlimit="10" cx="260.9" cy="833.9" r="8.7"/>
	<circle id="rightStar14_1_" fill="#FFFFFF" stroke="#FFFFFF" stroke-miterlimit="10" cx="8.2" cy="833.9" r="8.7"/>
	<circle id="rightStar13_1_" fill="#FFFFFF" stroke="#FFFFFF" stroke-miterlimit="10" cx="7.8" cy="93" r="8.7"/>
	<circle id="rightStar12_1_" fill="#FFFFFF" stroke="#FFFFFF" stroke-miterlimit="10" cx="113.1" cy="206.5" r="8.7"/>
	<circle id="rightStar11_1_" fill="#FFFFFF" stroke="#FFFFFF" stroke-miterlimit="10" cx="6.8" cy="290.2" r="8.7"/>
	<circle id="rightStar10_1_" fill="#FFFFFF" stroke="#FFFFFF" stroke-miterlimit="10" cx="8.2" cy="474.3" r="8.7"/>
	<circle id="rightStar9_1_" fill="#FFFFFF" stroke="#FFFFFF" stroke-miterlimit="10" cx="639.3" cy="970.2" r="8.7"/>
	<circle id="rightStar8_1_" fill="#FFFFFF" stroke="#FFFFFF" stroke-miterlimit="10" cx="639.3" cy="796.2" r="8.7"/>
	<circle id="rightStar7_1_" fill="#FFFFFF" stroke="#FFFFFF" stroke-miterlimit="10" cx="639.3" cy="486.3" r="8.7"/>
	<circle id="rightStar6_1_" fill="#FFFFFF" stroke="#FFFFFF" stroke-miterlimit="10" cx="584.8" cy="1037.7" r="8.7"/>
	<circle id="rightStar5_1_" fill="#FFFFFF" stroke="#FFFFFF" stroke-miterlimit="10" cx="401.8" cy="1037.7" r="8.7"/>
	<circle id="rightStar4_1_" fill="#FFFFFF" stroke="#FFFFFF" stroke-miterlimit="10" cx="521.9" cy="978.8" r="8.7"/>
	<circle id="rightStar3_1_" fill="#FFFFFF" stroke="#FFFFFF" stroke-miterlimit="10" cx="153.1" cy="1037.7" r="8.7"/>
	<circle id="rightStar2_1_" fill="#FFFFFF" stroke="#FFFFFF" stroke-miterlimit="10" cx="8.2" cy="978.8" r="8.7"/>
	<circle id="rightStar1_1_" fill="#FFFFFF" stroke="#FFFFFF" stroke-miterlimit="10" cx="260.9" cy="978.8" r="8.7"/>
</g>
<g id="leftLines">
	<line id="rightLine115_2_" fill="none" stroke="#FFFFFF" stroke-miterlimit="10" x1="435.4" y1="422" x2="342.2" y2="465.6"/>
	<line id="rightLine114_2_" fill="none" stroke="#FFFFFF" stroke-miterlimit="10" x1="342.2" y1="465.6" x2="260.9" y2="418.5"/>
	<line id="rightLine113_2_" fill="none" stroke="#FFFFFF" stroke-miterlimit="10" x1="260.9" y1="418.5" x2="356.6" y2="344.9"/>
	<line id="rightLine112_2_" fill="none" stroke="#FFFFFF" stroke-miterlimit="10" x1="356.6" y1="344.9" x2="248.4" y2="340.7"/>
	<line id="rightLine111_2_" fill="none" stroke="#FFFFFF" stroke-miterlimit="10" x1="252.2" y1="340.8" x2="311.1" y2="224"/>
	<line id="rightLine110_2_" fill="none" stroke="#FFFFFF" stroke-miterlimit="10" x1="247.7" y1="191.3" x2="248.7" y2="193.2"/>
	<line id="rightLine109_2_" fill="none" stroke="#FFFFFF" stroke-miterlimit="10" x1="248.7" y1="193.2" x2="317.9" y2="167.7"/>
	<line id="rightLine108_2_" fill="none" stroke="#FFFFFF" stroke-miterlimit="10" x1="317.9" y1="167.7" x2="330.9" y2="132.3"/>
	<line id="rightLine107_2_" fill="none" stroke="#FFFFFF" stroke-miterlimit="10" x1="334.1" y1="132.7" x2="393.2" y2="185.5"/>
	<line id="rightLine106_2_" fill="none" stroke="#FFFFFF" stroke-miterlimit="10" x1="393.2" y1="185.5" x2="417.7" y2="264.7"/>
	<line id="rightLine105_2_" fill="none" stroke="#FFFFFF" stroke-miterlimit="10" x1="417.7" y1="264.7" x2="473.5" y2="334.6"/>
	<line id="rightLine104_2_" fill="none" stroke="#FFFFFF" stroke-miterlimit="10" x1="473.5" y1="334.6" x2="435.4" y2="422"/>
	<line id="rightLine103_2_" fill="none" stroke="#FFFFFF" stroke-miterlimit="10" x1="473.5" y1="334.6" x2="546" y2="228.8"/>
	<line id="rightLine102_2_" fill="none" stroke="#FFFFFF" stroke-miterlimit="10" x1="521.7" y1="459.7" x2="435.4" y2="422"/>
	<line id="rightLine101_2_" fill="none" stroke="#FFFFFF" stroke-miterlimit="10" x1="473.5" y1="334.6" x2="521.7" y2="459.7"/>
	<line id="rightLine100_2_" fill="none" stroke="#FFFFFF" stroke-miterlimit="10" x1="435.4" y1="422" x2="356.6" y2="344.9"/>
	<line id="rightLine99_2_" fill="none" stroke="#FFFFFF" stroke-miterlimit="10" x1="356.6" y1="344.9" x2="417.7" y2="264.7"/>
	<line id="rightLine98_2_" fill="none" stroke="#FFFFFF" stroke-miterlimit="10" x1="310.7" y1="227.4" x2="356.1" y2="349.2"/>
	<line id="rightLine97_2_" fill="none" stroke="#FFFFFF" stroke-miterlimit="10" x1="310.7" y1="227.4" x2="317.9" y2="167.7"/>
	<line id="rightLine96_2_" fill="none" stroke="#FFFFFF" stroke-miterlimit="10" x1="521.9" y1="458.5" x2="443.9" y2="581.8"/>
	<line id="rightLine95_2_" fill="none" stroke="#FFFFFF" stroke-miterlimit="10" x1="443.9" y1="581.8" x2="342.2" y2="465.6"/>
	<line id="rightLine94_2_" fill="none" stroke="#FFFFFF" stroke-miterlimit="10" x1="342.2" y1="465.6" x2="144.4" y2="524.4"/>
	<line id="rightLine93_2_" fill="none" stroke="#FFFFFF" stroke-miterlimit="10" x1="144.4" y1="524.4" x2="260.9" y2="418.5"/>
	<line id="rightLine92_2_" fill="none" stroke="#FFFFFF" stroke-miterlimit="10" x1="331.3" y1="128.3" x2="445.9" y2="101.6"/>
	<line id="rightLine91_2_" fill="none" stroke="#FFFFFF" stroke-miterlimit="10" x1="445.9" y1="101.6" x2="393.2" y2="185.5"/>
	<line id="rightLine90_2_" fill="none" stroke="#FFFFFF" stroke-miterlimit="10" x1="393.2" y1="185.5" x2="546" y2="228.8"/>
	<line id="rightLine89_2_" fill="none" stroke="#FFFFFF" stroke-miterlimit="10" x1="546" y1="228.8" x2="521.9" y2="458.5"/>
	<line id="rightLine88_2_" fill="none" stroke="#FFFFFF" stroke-miterlimit="10" x1="260.9" y1="418.5" x2="248.4" y2="340.7"/>
	<line id="rightLine87_2_" fill="none" stroke="#FFFFFF" stroke-miterlimit="10" x1="171.6" y1="75.5" x2="248.7" y2="193.2"/>
	<line id="rightLine86_2_" fill="none" stroke="#FFFFFF" stroke-miterlimit="10" x1="171.6" y1="75.5" x2="314.3" y2="167.7"/>
	<line id="rightLine85_2_" fill="none" stroke="#FFFFFF" stroke-miterlimit="10" x1="171.6" y1="75.5" x2="330.9" y2="132.3"/>
	<circle id="rightLine84_2_" fill="#FFFFFF" stroke="#FFFFFF" stroke-miterlimit="10" cx="319.4" cy="599.1" r="8.7"/>
	<line id="rightLine83_2_" fill="none" stroke="#FFFFFF" stroke-miterlimit="10" x1="248.7" y1="342.2" x2="188.9" y2="260.6"/>
	<line id="rightLine82_2_" fill="none" stroke="#FFFFFF" stroke-miterlimit="10" x1="188.9" y1="260.6" x2="310.7" y2="227.4"/>
	<line id="rightLine81_2_" fill="none" stroke="#FFFFFF" stroke-miterlimit="10" x1="188.9" y1="260.6" x2="248.7" y2="193.2"/>
	<line id="rightLine80_2_" fill="none" stroke="#FFFFFF" stroke-miterlimit="10" x1="417.7" y1="264.7" x2="310.7" y2="227.4"/>
	<line id="rightLine79_2_" fill="none" stroke="#FFFFFF" stroke-miterlimit="10" x1="393.2" y1="185.5" x2="317.9" y2="167.7"/>
	<line id="rightLine78_2_" fill="none" stroke="#FFFFFF" stroke-miterlimit="10" x1="393.2" y1="185.5" x2="310.7" y2="227.4"/>
	<line id="rightLine77_2_" fill="none" stroke="#FFFFFF" stroke-miterlimit="10" x1="144.4" y1="397.2" x2="144.4" y2="524.4"/>
	<line id="rightLine76_2_" fill="none" stroke="#FFFFFF" stroke-miterlimit="10" x1="144.4" y1="397.2" x2="248.7" y2="342.2"/>
	<line id="rightLine75_2_" fill="none" stroke="#FFFFFF" stroke-miterlimit="10" x1="144.4" y1="397.2" x2="188.9" y2="260.6"/>
	<line id="rightLine74_2_" fill="none" stroke="#FFFFFF" stroke-miterlimit="10" x1="342.2" y1="465.6" x2="319.4" y2="599.1"/>
	<line id="rightLine73_2_" fill="none" stroke="#FFFFFF" stroke-miterlimit="10" x1="319.4" y1="599.1" x2="144.4" y2="524.4"/>
	<line id="rightLine72_2_" fill="none" stroke="#FFFFFF" stroke-miterlimit="10" x1="319.4" y1="599.1" x2="443.9" y2="581.8"/>
	<line id="rightLine71_2_" fill="none" stroke="#FFFFFF" stroke-miterlimit="10" x1="546" y1="228.8" x2="417.7" y2="264.7"/>
	<line id="rightLine70_2_" fill="none" stroke="#FFFFFF" stroke-miterlimit="10" x1="478.6" y1="159.1" x2="546" y2="228.8"/>
	<line id="rightLine69_2_" fill="none" stroke="#FFFFFF" stroke-miterlimit="10" x1="445.9" y1="101.6" x2="478.6" y2="159.1"/>
	<line id="rightLine68_2_" fill="none" stroke="#FFFFFF" stroke-miterlimit="10" x1="478.6" y1="159.1" x2="393.8" y2="184.5"/>
	<line id="rightLine67_2_" fill="none" stroke="#FFFFFF" stroke-miterlimit="10" x1="478.6" y1="159.1" x2="563.3" y2="75.5"/>
	<line id="rightLine66_2_" fill="none" stroke="#FFFFFF" stroke-miterlimit="10" x1="563.3" y1="75.5" x2="546" y2="228.8"/>
	<line id="rightLine65_2_" fill="none" stroke="#FFFFFF" stroke-miterlimit="10" x1="563.3" y1="75.5" x2="445.9" y2="101.6"/>
	<line id="rightLine64_2_" fill="none" stroke="#FFFFFF" stroke-miterlimit="10" x1="373" y1="23.6" x2="330.9" y2="132.3"/>
	<line id="rightLine63_2_" fill="none" stroke="#FFFFFF" stroke-miterlimit="10" x1="464.9" y1="0.7" x2="445.9" y2="101.6"/>
	<line id="rightLine62_2_" fill="none" stroke="#FFFFFF" stroke-miterlimit="10" x1="373" y1="23.6" x2="464.9" y2="0.7"/>
	<line id="rightLine61_2_" fill="none" stroke="#FFFFFF" stroke-miterlimit="10" x1="373" y1="23.6" x2="254.7" y2="0.7"/>
	<line id="rightLine60_2_" fill="none" stroke="#FFFFFF" stroke-miterlimit="10" x1="254.7" y1="0.7" x2="171.6" y2="75.5"/>
	<line id="rightLine59_2_" fill="none" stroke="#FFFFFF" stroke-miterlimit="10" x1="563.3" y1="75.5" x2="639" y2="176.5"/>
	<line id="rightLine58_2_" fill="none" stroke="#FFFFFF" stroke-miterlimit="10" x1="639" y1="176.5" x2="593.5" y2="290.2"/>
	<line id="rightLine57_2_" fill="none" stroke="#FFFFFF" stroke-miterlimit="10" x1="593.5" y1="290.2" x2="546" y2="228.8"/>
	<line id="rightLine56_2_" fill="none" stroke="#FFFFFF" stroke-miterlimit="10" x1="639" y1="176.5" x2="613.1" y2="340.7"/>
	<line id="rightLine55_2_" fill="none" stroke="#FFFFFF" stroke-miterlimit="10" x1="613.1" y1="340.7" x2="639" y2="486.3"/>
	<line id="rightLine54_2_" fill="none" stroke="#FFFFFF" stroke-miterlimit="10" x1="639" y1="486.3" x2="521.9" y2="458.5"/>
	<line id="rightLine53_2_" fill="none" stroke="#FFFFFF" stroke-miterlimit="10" x1="613.1" y1="340.7" x2="521.9" y2="458.5"/>
	<line id="rightLine52_2_" fill="none" stroke="#FFFFFF" stroke-miterlimit="10" x1="593.5" y1="290.2" x2="521.9" y2="458.5"/>
	<line id="rightLine51_2_" fill="none" stroke="#FFFFFF" stroke-miterlimit="10" x1="593.5" y1="290.2" x2="613.1" y2="340.7"/>
	<line id="rightLine50_2_" fill="none" stroke="#FFFFFF" stroke-miterlimit="10" x1="639" y1="2.5" x2="464.9" y2="0.7"/>
	<line id="rightLine49_2_" fill="none" stroke="#FFFFFF" stroke-miterlimit="10" x1="639" y1="2.5" x2="563.3" y2="75.5"/>
	<line id="rightLine48_2_" fill="none" stroke="#FFFFFF" stroke-miterlimit="10" x1="464.9" y1="0.7" x2="563.3" y2="75.5"/>
	<line id="rightLine47_2_" fill="none" stroke="#FFFFFF" stroke-miterlimit="10" x1="639" y1="1.6" x2="639" y2="176.5"/>
	<line id="rightLine46_2_" fill="none" stroke="#FFFFFF" stroke-miterlimit="10" x1="639" y1="176.5" x2="639" y2="486.3"/>
	<line id="rightLine45_2_" fill="none" stroke="#FFFFFF" stroke-miterlimit="10" x1="639" y1="486.3" x2="549" y2="653.5"/>
	<line id="rightLine44_2_" fill="none" stroke="#FFFFFF" stroke-miterlimit="10" x1="549" y1="653.5" x2="443.9" y2="581.8"/>
	<line id="rightLine43_2_" fill="none" stroke="#FFFFFF" stroke-miterlimit="10" x1="549" y1="653.5" x2="381.7" y2="759.7"/>
	<line id="rightLine42_2_" fill="none" stroke="#FFFFFF" stroke-miterlimit="10" x1="381.7" y1="759.7" x2="319.4" y2="599.1"/>
	<line id="rightLine41_2_" fill="none" stroke="#FFFFFF" stroke-miterlimit="10" x1="443.9" y1="581.8" x2="381.7" y2="759.7"/>
	<line id="rightLine40_2_" fill="none" stroke="#FFFFFF" stroke-miterlimit="10" x1="322.2" y1="599.1" x2="243.3" y2="670.7"/>
	<line id="rightLine39_2_" fill="none" stroke="#FFFFFF" stroke-miterlimit="10" x1="243.3" y1="670.7" x2="381.7" y2="759.7"/>
	<line id="rightLine38_2_" fill="none" stroke="#FFFFFF" stroke-miterlimit="10" x1="243.3" y1="670.7" x2="144.4" y2="524.4"/>
	<line id="rightLine37_2_" fill="none" stroke="#FFFFFF" stroke-miterlimit="10" x1="144.4" y1="524.4" x2="153.1" y2="768.3"/>
	<line id="rightLine36_2_" fill="none" stroke="#FFFFFF" stroke-miterlimit="10" x1="144.4" y1="524.4" x2="11.2" y2="626.3"/>
	<line id="rightLine35_2_" fill="none" stroke="#FFFFFF" stroke-miterlimit="10" x1="11.2" y1="626.3" x2="153.1" y2="768.3"/>
	<line id="rightLine34_2_" fill="none" stroke="#FFFFFF" stroke-miterlimit="10" x1="153.1" y1="768.3" x2="381.7" y2="759.7"/>
	<line id="rightLine33_2_" fill="none" stroke="#FFFFFF" stroke-miterlimit="10" x1="243.3" y1="670.7" x2="153.1" y2="768.3"/>
	<line id="rightLine32_2_" fill="none" stroke="#FFFFFF" stroke-miterlimit="10" x1="11.2" y1="474.3" x2="144.4" y2="397.2"/>
	<line id="rightLine31_2_" fill="none" stroke="#FFFFFF" stroke-miterlimit="10" x1="113.1" y1="206.5" x2="188.9" y2="260.6"/>
	<line id="rightLine30_2_" fill="none" stroke="#FFFFFF" stroke-miterlimit="10" x1="171.6" y1="75.5" x2="113.1" y2="206.5"/>
	<line id="rightLine29_2_" fill="none" stroke="#FFFFFF" stroke-miterlimit="10" x1="144.4" y1="397.2" x2="6.8" y2="290.2"/>
	<line id="rightLine28_2_" fill="none" stroke="#FFFFFF" stroke-miterlimit="10" x1="6.8" y1="290.2" x2="113.1" y2="206.5"/>
	<line id="rightLine27_2_" fill="none" stroke="#FFFFFF" stroke-miterlimit="10" x1="113.1" y1="206.5" x2="7.8" y2="93"/>
	<line id="rightLine26_2_" fill="none" stroke="#FFFFFF" stroke-miterlimit="10" x1="7.8" y1="93" x2="171.6" y2="75.5"/>
	<line id="rightLine25_2_" fill="none" stroke="#FFFFFF" stroke-miterlimit="10" x1="188.9" y1="260.6" x2="6.8" y2="290.2"/>
	<line id="rightLine24_2_" fill="none" stroke="#FFFFFF" stroke-miterlimit="10" x1="153.1" y1="768.3" x2="8.2" y2="833.9"/>
	<line id="rightLine23_2_" fill="none" stroke="#FFFFFF" stroke-miterlimit="10" x1="8.2" y1="833.9" x2="260.9" y2="833.9"/>
	<line id="rightLine22_2_" fill="none" stroke="#FFFFFF" stroke-miterlimit="10" x1="260.9" y1="833.9" x2="381.7" y2="764"/>
	<line id="rightLine21_2_" fill="none" stroke="#FFFFFF" stroke-miterlimit="10" x1="381.7" y1="764" x2="443.9" y2="891"/>
	<line id="rightLine20_2_" fill="none" stroke="#FFFFFF" stroke-miterlimit="10" x1="443.9" y1="891" x2="260.9" y2="833.9"/>
	<line id="rightLine19_2_" fill="none" stroke="#FFFFFF" stroke-miterlimit="10" x1="549" y1="653.5" x2="443.9" y2="891"/>
	<line id="rightLine17_2_" fill="none" stroke="#FFFFFF" stroke-miterlimit="10" x1="171.6" y1="75.5" x2="11.2" y2="2.5"/>
	<line id="rightLine16_2_" fill="none" stroke="#FFFFFF" stroke-miterlimit="10" x1="260.9" y1="833.9" x2="260.9" y2="978.8"/>
	<line id="rightLine15_2_" fill="none" stroke="#FFFFFF" stroke-miterlimit="10" x1="260.9" y1="978.8" x2="153.1" y2="1037.7"/>
	<line id="rightLine14_2_" fill="none" stroke="#FFFFFF" stroke-miterlimit="10" x1="153.1" y1="1037.7" x2="8.2" y2="978.8"/>
	<line id="rightLine13_2_" fill="none" stroke="#FFFFFF" stroke-miterlimit="10" x1="8.2" y1="978.8" x2="260.9" y2="978.8"/>
	<line id="rightLine12_2_" fill="none" stroke="#FFFFFF" stroke-miterlimit="10" x1="8.2" y1="833.9" x2="8.2" y2="978.8"/>
	<line id="rightLine11_2_" fill="none" stroke="#FFFFFF" stroke-miterlimit="10" x1="443.9" y1="891" x2="260.9" y2="978.8"/>
	<line id="rightLine10_2_" fill="none" stroke="#FFFFFF" stroke-miterlimit="10" x1="521.9" y1="978.8" x2="443.9" y2="891"/>
	<line id="rightLine9_2_" fill="none" stroke="#FFFFFF" stroke-miterlimit="10" x1="443.9" y1="891" x2="639.3" y2="796.2"/>
	<line id="rightLine8_2_" fill="none" stroke="#FFFFFF" stroke-miterlimit="10" x1="639.3" y1="796.2" x2="549" y2="653.5"/>
	<line id="rightLine7_2_" fill="none" stroke="#FFFFFF" stroke-miterlimit="10" x1="521.9" y1="978.8" x2="639.3" y2="970.2"/>
	<line id="rightLine6_2_" fill="none" stroke="#FFFFFF" stroke-miterlimit="10" x1="521.9" y1="978.8" x2="260.9" y2="978.8"/>
	<line id="rightLine5_2_" fill="none" stroke="#FFFFFF" stroke-miterlimit="10" x1="521.9" y1="978.8" x2="401.8" y2="1037.7"/>
	<line id="rightLine4_2_" fill="none" stroke="#FFFFFF" stroke-miterlimit="10" x1="401.8" y1="1037.7" x2="153.1" y2="1037.7"/>
	<line id="rightLine3_2_" fill="none" stroke="#FFFFFF" stroke-miterlimit="10" x1="401.8" y1="1037.7" x2="584.8" y2="1037.7"/>
	<line id="rightLine2_2_" fill="none" stroke="#FFFFFF" stroke-miterlimit="10" x1="584.8" y1="1037.7" x2="639.3" y2="970.2"/>
	<line id="rightLine1_2_" fill="none" stroke="#FFFFFF" stroke-miterlimit="10" x1="521.9" y1="978.8" x2="584.8" y2="1037.7"/>
	<line fill="none" stroke="#FFFFFF" stroke-miterlimit="10" x1="254.7" y1="0.7" x2="464.9" y2="0.7"/>
	<line fill="none" stroke="#FFFFFF" stroke-miterlimit="10" x1="254.7" y1="0.7" x2="11.2" y2="2.5"/>
	<line fill="none" stroke="#FFFFFF" stroke-miterlimit="10" x1="7.8" y1="2.5" x2="6.8" y2="93"/>
	<line fill="none" stroke="#FFFFFF" stroke-miterlimit="10" x1="6.8" y1="93" x2="6.8" y2="290.2"/>
	<line fill="none" stroke="#FFFFFF" stroke-miterlimit="10" x1="6.8" y1="290.2" x2="8.2" y2="474.3"/>
	<line fill="none" stroke="#FFFFFF" stroke-miterlimit="10" x1="8.2" y1="474.3" x2="7.2" y2="626.3"/>
	<line fill="none" stroke="#FFFFFF" stroke-miterlimit="10" x1="7.2" y1="626.3" x2="8.2" y2="833.9"/>
	<line fill="none" stroke="#FFFFFF" stroke-miterlimit="10" x1="153.1" y1="1037.7" x2="401.8" y2="1037.7"/>
</g>
</svg>
